HIERARCHY
ROOT Pelvis
{
	OFFSET 0.000000 0.000000 0.000000
	CHANNELS 6 Xposition Yposition Zposition Xrotation Yrotation Zrotation
	JOINT LeftUpLeg_virtual
	{
		OFFSET 0.000000 0.000000 0.000000
		CHANNELS 3 Xrotation Yrotation Zrotation
		JOINT LeftUpLeg
		{
			OFFSET 18.735201 -5.666702 -4.541200
			CHANNELS 3 Xrotation Yrotation Zrotation
			JOINT LeftLeg
			{
				OFFSET -0.021200 -31.938179 0.493100
				CHANNELS 3 Xrotation Yrotation Zrotation
				JOINT LeftFoot
				{
					OFFSET 0.021200 -31.938179 -4.336299
					CHANNELS 3 Xrotation Yrotation Zrotation
					JOINT LeftToeBase
					{
						OFFSET 0.943001 -26.722000 15.023500
						CHANNELS 3 Xrotation Yrotation Zrotation
						End Site
						{
							OFFSET 0 0 0
						}
					}
				}
			}
		}
	}
	JOINT RightUpLeg_virtual
	{
		OFFSET 0.000000 0.000000 0.000000
		CHANNELS 3 Xrotation Yrotation Zrotation
		JOINT RightUpLeg
		{
			OFFSET -18.735201 -5.666702 -4.541200
			CHANNELS 3 Xrotation Yrotation Zrotation
			JOINT RightLeg
			{
				OFFSET 0.018946 -31.938133 0.493100
				CHANNELS 3 Xrotation Yrotation Zrotation
				JOINT RightFoot
				{
					OFFSET -0.018946 -31.938126 -4.336299
					CHANNELS 3 Xrotation Yrotation Zrotation
					JOINT RightToeBase
					{
						OFFSET -0.943001 -26.722004 15.023500
						CHANNELS 3 Xrotation Yrotation Zrotation
						End Site
						{
							OFFSET 0 0 0
						}
					}
				}
			}
		}
	}
	JOINT Hips_virtual
	{
		OFFSET 0.000000 0.000000 0.000000
		CHANNELS 3 Xrotation Yrotation Zrotation
		JOINT Hips
		{
			OFFSET -0.000000 -0.000000 -0.000000
			CHANNELS 3 Xrotation Yrotation Zrotation
			JOINT Spine
			{
				OFFSET 0.000000 10.199997 -0.299500
				CHANNELS 3 Xrotation Yrotation Zrotation
				JOINT Spine1
				{
					OFFSET 0.000000 11.900002 -1.516600
					CHANNELS 3 Xrotation Yrotation Zrotation
					JOINT Spine2
					{
						OFFSET 0.000000 13.600006 -2.842500
						CHANNELS 3 Xrotation Yrotation Zrotation
						JOINT Neck_virtual
						{
							OFFSET 0.000000 0.000000 0.000000
							CHANNELS 3 Xrotation Yrotation Zrotation
							JOINT Neck
							{
								OFFSET 0.000000 9.624100 -2.890100
								CHANNELS 3 Xrotation Yrotation Zrotation
								JOINT Head
								{
									OFFSET 0.000000 14.068802 -1.351900
									CHANNELS 3 Xrotation Yrotation Zrotation
									End Site
									{
										OFFSET 0 0 0
									}
								}
							}
						}
						JOINT LeftShoulder_virtual
						{
							OFFSET 0.000000 0.000000 0.000000
							CHANNELS 3 Xrotation Yrotation Zrotation
							JOINT LeftShoulder
							{
								OFFSET 15.263000 10.923401 -0.547700
								CHANNELS 3 Xrotation Yrotation Zrotation
								JOINT LeftArm
								{
									OFFSET 25.438599 -2.830597 -13.032500
									CHANNELS 3 Xrotation Yrotation Zrotation
									JOINT LeftForeArm
									{
										OFFSET 29.960503 0.000000 0.000000
										CHANNELS 3 Xrotation Yrotation Zrotation
										JOINT LeftHand
										{
											OFFSET 27.849251 0.000000 0.000000
											CHANNELS 3 Xrotation Yrotation Zrotation
											End Site
											{
												OFFSET 0 0 0
											}
										}
									}
								}
							}
						}
						JOINT RightShoulder_virtual
						{
							OFFSET 0.000000 0.000000 0.000000
							CHANNELS 3 Xrotation Yrotation Zrotation
							JOINT RightShoulder
							{
								OFFSET -15.263000 10.923401 -0.547700
								CHANNELS 3 Xrotation Yrotation Zrotation
								JOINT RightArm
								{
									OFFSET -25.438599 -2.830597 -13.032500
									CHANNELS 3 Xrotation Yrotation Zrotation
									JOINT RightForeArm
									{
										OFFSET -29.960503 0.000000 0.000000
										CHANNELS 3 Xrotation Yrotation Zrotation
										JOINT RightHand
										{
											OFFSET -27.849251 0.000000 0.000000
											CHANNELS 3 Xrotation Yrotation Zrotation
											End Site
											{
												OFFSET 0 0 0
											}
										}
									}
								}
							}
						}
					}
				}
			}
		}
	}
}
MOTION
Frames: 8
Frame Time: 0.03333333
2.520399 80.722618 -4.366902 0.000000 0.000000 0.000000 3.090470 -13.930556 2.961356 -39.133955 5.466562 19.767918 54.609411 -4.577165 -1.438489 -2.741943 -3.789120 -11.000505 0.000000 0.000000 0.000000 -1.704053 8.563773 -0.598985 -33.230831 -0.970129 -15.105551 54.344796 3.580834 -0.177276 -6.894179 -0.059414 14.358285 0.000000 0.000000 0.000000 1.848255 5.555819 0.906217 -13.438055 3.800017 0.265747 24.944107 -0.038632 1.020787 14.018246 -0.521981 0.058279 0.000000 0.000000 0.000000 14.610290 0.312111 -0.981920 4.298297 -0.727214 0.201640 0.000000 0.000000 0.000000 14.029748 -0.779698 -0.186495 3.428926 -14.488638 -8.961586 -39.803518 -8.113615 -64.855631 -43.162144 -75.215969 -40.683137 0.000000 0.000000 0.000000 14.954711 1.238657 3.008895 5.179290 2.800975 17.135355 -48.762647 20.090858 50.362642 -57.278250 80.020331 51.804434 0.000000 0.000000 0.000000 
2.459049 80.923592 -4.249172 0.000000 0.000000 0.000000 3.230748 -13.896253 2.935121 -38.913456 5.520706 19.712556 54.215644 -4.595254 -1.519645 -3.070130 -3.739167 -11.109700 0.000000 0.000000 0.000000 -1.576172 8.551228 -0.604675 -33.041067 -0.996805 -15.097636 53.898539 3.545659 -0.186389 -7.242260 -0.126188 14.289897 0.000000 0.000000 0.000000 1.751525 5.381625 0.962298 -13.181511 4.397380 0.446242 24.663366 -0.075333 0.969058 13.828392 -0.539997 0.040173 0.000000 0.000000 0.000000 14.312502 0.249953 -0.981805 4.123512 -0.748972 0.196887 0.000000 0.000000 0.000000 13.908270 -0.805467 -0.227563 3.477506 -14.232192 -9.274189 -39.049937 -8.725961 -64.285522 -41.295068 -75.371971 -38.662948 0.000000 0.000000 0.000000 14.893572 1.213730 2.986995 5.221966 2.826001 17.336461 -48.146232 19.973208 49.705366 -54.705178 80.063436 49.080619 0.000000 0.000000 0.000000 
2.389952 81.155907 -4.126982 0.000000 0.000000 0.000000 3.385786 -13.857009 2.907738 -38.669966 5.580156 19.653118 53.812656 -4.613253 -1.604790 -3.392924 -3.688534 -11.224255 0.000000 0.000000 0.000000 -1.430180 8.510884 -0.604298 -32.825725 -1.036492 -15.083990 53.421041 3.501544 -0.198140 -7.602695 -0.199299 14.209158 0.000000 0.000000 0.000000 1.651878 5.182055 1.014504 -12.906874 5.021620 0.597138 24.348747 -0.120290 0.915158 13.615695 -0.560508 0.023244 0.000000 0.000000 0.000000 13.979941 0.180184 -0.979556 3.936491 -0.771675 0.188680 0.000000 0.000000 0.000000 13.761100 -0.836406 -0.267130 3.513482 -13.978015 -9.594758 -38.275164 -9.358134 -63.630794 -39.214551 -75.477333 -36.430935 0.000000 0.000000 0.000000 14.808127 1.180165 2.973332 5.257504 2.834825 17.546611 -47.398002 19.948163 48.959076 -51.957546 80.156252 46.185995 0.000000 0.000000 0.000000 
2.316914 81.409172 -3.999986 0.000000 0.000000 0.000000 3.550876 -13.813154 2.877408 -38.410443 5.644346 19.588773 53.405444 -4.630506 -1.692046 -3.705886 -3.637988 -11.341380 0.000000 0.000000 0.000000 -1.269836 8.443525 -0.599961 -32.589875 -1.087547 -15.066871 52.918281 3.450640 -0.211962 -7.971019 -0.276674 14.119058 0.000000 0.000000 0.000000 1.547470 4.958042 1.061840 -12.617154 5.652538 0.720113 24.002511 -0.172372 0.860009 13.381803 -0.582705 0.007846 0.000000 0.000000 0.000000 13.614446 0.104771 -0.974833 3.738102 -0.794356 0.177682 0.000000 0.000000 0.000000 13.592548 -0.870343 -0.302411 3.540664 -13.723666 -9.908301 -37.473481 -10.014059 -62.884623 -36.924928 -75.529926 -33.991796 0.000000 0.000000 0.000000 14.695381 1.139722 2.967795 5.281514 2.830443 17.766599 -46.539925 19.988586 48.147752 -49.059828 80.283293 43.147254 0.000000 0.000000 0.000000 
2.242665 81.673485 -3.867388 0.000000 0.000000 0.000000 3.720867 -13.766490 2.843424 -38.142597 5.711801 19.519695 52.996903 -4.646342 -1.779386 -4.007094 -3.588104 -11.457962 0.000000 0.000000 0.000000 -1.099698 8.350239 -0.593230 -32.339614 -1.148255 -15.048017 52.396259 3.395480 -0.226628 -8.343227 -0.356404 14.023748 0.000000 0.000000 0.000000 1.436096 4.713237 1.103818 -12.316228 6.276675 0.821102 23.627803 -0.229743 0.804649 13.128864 -0.605555 -0.005650 0.000000 0.000000 0.000000 13.219083 0.026295 -0.966755 3.529599 -0.815674 0.164924 0.000000 0.000000 0.000000 13.407375 -0.905111 -0.331405 3.562593 -13.466480 -10.202643 -36.637968 -10.696415 -62.041176 -34.442284 -75.528792 -31.361831 0.000000 0.000000 0.000000 14.555273 1.094361 2.970348 5.292198 2.815965 17.998213 -45.587415 20.069910 47.298394 -46.041943 80.430757 39.999302 0.000000 0.000000 0.000000 
2.168628 81.940636 -3.728513 0.000000 0.000000 0.000000 3.890694 -13.719403 2.806025 -37.874123 5.780544 19.446923 52.588847 -4.659976 -1.864875 -4.296241 -3.539124 -11.570858 0.000000 0.000000 0.000000 -0.924754 8.232753 -0.585245 -32.081692 -1.216780 -15.028756 51.861790 3.338636 -0.240731 -8.715352 -0.436738 13.927652 0.000000 0.000000 0.000000 1.316271 4.452879 1.140268 -12.006100 6.886299 0.907259 23.228527 -0.290246 0.750159 12.859495 -0.628004 -0.016904 0.000000 0.000000 0.000000 12.797643 -0.052647 -0.954500 3.312361 -0.834280 0.151420 0.000000 0.000000 0.000000 13.210345 -0.938690 -0.353056 3.582199 -13.203753 -10.469406 -35.758236 -11.407146 -61.097476 -31.792215 -75.474717 -28.567912 0.000000 0.000000 0.000000 14.390563 1.045840 2.980754 5.290323 2.793280 18.242571 -44.548881 20.172651 46.438132 -42.938633 80.589006 36.783796 0.000000 0.000000 0.000000 
2.095265 82.204552 -3.583096 0.000000 0.000000 0.000000 4.056029 -13.674262 2.766119 -37.611673 5.848532 19.372042 52.182724 -4.670435 -1.946828 -4.573805 -3.490881 -11.677089 0.000000 0.000000 0.000000 -0.749936 8.093498 -0.576892 -31.822924 -1.291199 -15.010200 51.322526 3.282362 -0.253047 -9.083490 -0.516176 13.834695 0.000000 0.000000 0.000000 1.187997 4.182193 1.171212 -11.685143 7.476743 0.984512 22.809166 -0.351838 0.697428 12.576718 -0.649172 -0.025720 0.000000 0.000000 0.000000 12.354358 -0.129944 -0.937803 3.087837 -0.849154 0.137866 0.000000 0.000000 0.000000 13.006161 -0.969326 -0.367032 3.601969 -12.933038 -10.703370 -34.818406 -12.149050 -60.053038 -29.002213 -75.370154 -25.640400 0.000000 0.000000 0.000000 14.206198 0.995410 2.998153 5.278786 2.762306 18.498068 -43.427091 20.284316 45.589768 -39.782420 80.753607 33.540132 0.000000 0.000000 0.000000 
2.022682 82.461006 -3.431380 0.000000 0.000000 0.000000 4.213811 -13.633207 2.724955 -37.360230 5.913988 19.296811 51.780115 -4.676641 -2.023863 -4.840450 -3.442898 -11.773986 0.000000 0.000000 0.000000 -0.579557 7.935471 -0.568907 -31.569524 -1.369617 -14.993320 50.786404 3.228364 -0.262697 -9.444082 -0.593599 13.747876 0.000000 0.000000 0.000000 1.052903 3.905196 1.196812 -11.348396 8.043967 1.056422 22.374607 -0.412933 0.646862 12.283848 -0.668481 -0.032200 0.000000 0.000000 0.000000 11.893974 -0.204249 -0.917145 2.857657 -0.859785 0.124533 0.000000 0.000000 0.000000 12.799518 -0.995643 -0.373401 3.624149 -12.652642 -10.901343 -33.796848 -12.926638 -58.908285 -26.094623 -75.218531 -22.606186 0.000000 0.000000 0.000000 14.008398 0.943723 3.020794 5.261844 2.721053 18.759174 -42.221573 20.399890 44.768116 -36.595153 80.924894 30.295519 0.000000 0.000000 0.000000 
